<svg xmlns="http://www.w3.org/2000/svg" xmlns:xlink="http://www.w3.org/1999/xlink" viewBox="0 0 1024 327.98"><defs><style>.cls-1{fill:url(#linear-gradient);}</style><linearGradient id="linear-gradient" x1="484.21" y1="279.84" x2="484.21" y2="-9.65" gradientUnits="userSpaceOnUse"><stop offset="0" stop-color="#b87333"/><stop offset="0.12" stop-color="#cb8726"/><stop offset="0.32" stop-color="#e2a015"/><stop offset="0.52" stop-color="#f2b109"/><stop offset="0.74" stop-color="#fcbc02"/><stop offset="1" stop-color="#ffbf00"/></linearGradient><symbol id="Eva_Logo" data-name="Eva Logo" viewBox="0 0 968.41 275.99"><path class="cls-1" d="M483.56,276,292.69,20.78A13.11,13.11,0,1,1,314,5.44L483.56,231.18,653.18,5.44a13.11,13.11,0,0,1,21.26,15.34ZM963,273.51a13.12,13.12,0,0,0,3-18.31L775.06,0,584.18,255.2a13.11,13.11,0,1,0,21.26,15.35L775.06,44.8,944.67,270.55a13.13,13.13,0,0,0,18.3,3ZM385.43,262.87a13.11,13.11,0,0,0-13.11-13.11H51.26l151.44-229A13.11,13.11,0,0,0,181.44,5.44L0,276H372.32A13.11,13.11,0,0,0,385.43,262.87Z"/></symbol></defs><title>eva_logo</title><g id="Light_Bg" data-name="Light Bg"><use width="968.41" height="275.98" transform="translate(28.26 26)" xlink:href="#Eva_Logo"/></g></svg>